<svg width="27" height="28" viewBox="0 0 27 28" fill="none" xmlns="http://www.w3.org/2000/svg">
<path d="M13.3584 4.83301C13.9106 4.83301 14.3582 5.28088 14.3584 5.83301V13H21.1514C21.7035 13.0002 22.1514 13.4478 22.1514 14C22.1514 14.5522 21.7035 14.9998 21.1514 15H14.3584V22.166C14.3584 22.7183 13.9107 23.166 13.3584 23.166C12.8062 23.166 12.3584 22.7183 12.3584 22.166V15H5.56641C5.01412 15 4.56641 14.5523 4.56641 14C4.56641 13.4477 5.01412 13 5.56641 13H12.3584V5.83301C12.3586 5.28091 12.8063 4.83306 13.3584 4.83301Z" fill="#EDF2FF"/>
</svg>
